<svg width="470" height="708" viewBox="0 0 470 708" fill="none" xmlns="http://www.w3.org/2000/svg">
<path d="M186.418 269.94C210.084 232.773 240.918 148.74 174.918 109.94C151.084 89.7731 103.317 42.7398 102.917 15.9398C102.517 -10.8602 87.7508 10.1065 80.4174 23.9398C73.4174 55.4397 68.1174 120.939 102.917 130.939C111.251 118.606 119.417 94.6395 85.4174 97.4395C42.9174 100.939 33.4174 147.939 35.4174 159.439C37.0174 168.639 17.4174 180.273 7.41742 184.939C4.08409 190.106 -0.582581 202.239 7.41742 209.439C17.4174 218.439 65.9174 251.439 80.4174 247.439C92.0174 244.239 64.2508 295.106 48.9174 320.939C42.9174 339.939 45.3173 387.739 102.917 426.939C160.518 466.139 160.251 545.273 152.917 579.939C144.917 620.773 117.917 700.539 73.9174 692.939C29.9174 685.339 55.5841 662.439 73.9174 651.939C84.2508 635.273 103.417 592.739 97.4174 555.939C89.9174 509.939 93.4173 393.939 139.917 379.439C171.084 366.106 242.317 343.439 277.917 359.439C322.417 379.439 441.918 418.439 433.418 568.439C426.618 688.439 335.918 709.106 291.418 704.439C235.418 684.773 141.718 621.839 214.918 527.439C283.584 467.106 389.241 354.939 433.418 312.439C477.594 269.94 501.918 168.939 352.918 219.439" stroke="white" stroke-width="5"/>
</svg>
