<svg width="374" height="667" viewBox="0 0 374 667" fill="none" xmlns="http://www.w3.org/2000/svg">
<path d="M145.5 133.203L124.5 118.203C133.5 113.203 149.1 100.803 139.5 91.2031C129.9 81.6031 135.5 50.8698 139.5 36.7031C159 -17.7969 245 6.20308 238 23.2031C235.994 28.0753 236.366 33.9486 238 39.8942M145.5 133.203C156.833 134.37 180.4 130.603 184 106.203C188.5 75.7031 200.5 66.2031 209.5 64.7031C216.7 63.5031 231.5 47.6638 238 39.8942M145.5 133.203C141.167 141.203 132.7 162.403 133.5 183.203C134.3 204.003 98.5 282.536 80.5 319.203C72.6667 319.036 56.6 319.603 55 323.203C53 327.703 42 346.203 47.5 349.703C51.9 352.503 59 339.87 62 333.203H73C69.6667 336.036 64 342.103 68 343.703C72 345.303 83 338.703 88 335.203L156 202.703C161.333 192.036 172 181.203 172 223.203C172 265.203 106 351.703 73 389.703C70.8333 394.536 70.1 404.703 84.5 406.703C93.0387 407.889 114.071 405.618 134.608 402.703M238 39.8942C240.927 50.5448 247.901 61.4273 252.5 67.2031C249.667 68.8698 244.2 75.3031 245 87.7031C245.8 100.103 237 99.8698 232.5 98.2031C205.7 90.2031 210.667 121.536 216.5 138.203L237 168.703C239.5 178.036 242.1 203.003 232.5 228.203C230.799 232.669 229.826 238.228 229.422 244.5M187 419.703C177.5 443.703 155 493.803 141 502.203C123.5 512.703 87.5 572.703 73 601.203C58.5 629.703 73 643.703 87.5 655.703C102 667.703 84.5 663.203 60 663.203C40.4 663.203 33.5 646.536 32.5 638.203L22 661.203L4 659.203C7.16667 650.87 15.2 630.403 22 615.203C28.8 600.003 45.5 589.87 53 586.703C62.1667 559.87 85.4 502.303 105 486.703C124.6 471.103 132.906 424.203 134.608 402.703M187 419.703C199.167 432.536 223.7 467.803 224.5 506.203C225.3 544.603 253.833 579.87 268 592.703C272.833 599.87 281.6 616.203 278 624.203L271 663.203H290.5L294.5 644.703C298 650.87 308.2 663.203 321 663.203C337 663.203 380.5 646.203 368.5 638.203C358.9 631.803 343.167 635.536 336.5 638.203C318 624.37 286.43 586.061 278 547.703C268 502.203 254 411.74 250.5 421.721M187 419.703C177.8 421.303 148.239 409.036 134.608 402.703M187 419.703L214.7 408.7C224.388 411.689 237.593 421.188 250.5 421.721M231.08 277.703C234.1 301.047 240.134 325.559 244.5 340.203C255.5 362.37 275.6 408.903 268 417.703C265.1 421.061 258.466 422.051 250.5 421.721M231.08 277.703C229.547 265.853 228.79 254.304 229.422 244.5M231.08 277.703C262.053 298.536 325.7 340.203 332.5 340.203M229.422 244.5C254.281 266 307.5 309.4 321.5 311C339 313 363 321.5 344.5 345.5C344 338.833 340.5 325.5 330.5 325.5" stroke="white" stroke-width="5"/>
</svg>
